<svg xmlns="http://www.w3.org/2000/svg" id="Capa_1" data-name="Capa 1" viewBox="0 0 1004.6 327.2"><defs><style>.cls-1{fill:#fff;}</style></defs><title>bs-logo-blanco-ok</title><path class="cls-1" d="M287.5,7.2a9.4,9.4,0,0,0-8.1-4.6h-176a9.4,9.4,0,0,0-8.1,4.6L7.2,159.7a9.6,9.6,0,0,0,0,9.3L95.3,321.5a9.3,9.3,0,0,0,8.1,4.7h176a9.3,9.3,0,0,0,8.1-4.7l88-152.5a9.1,9.1,0,0,0,0-9.3ZM274.1,307.6H108.7L26.1,164.4,108.7,21.2H274.1l82.6,143.2Z"></path><path class="cls-1" d="M259.8,193.1h-14a5.5,5.5,0,0,1-5.5-5.5v-.3l-.6-10a15.3,15.3,0,0,0-14.9-14.9,15,15,0,0,0-15,15V179l-3.4,72.3v.3a5.6,5.6,0,0,1-11.1,0v-.2l-3.4-96.3a15,15,0,0,0-30,0l-2.3,53.6L152,195.5a4.7,4.7,0,0,0-4.1-2.4H132.7V163.8h2.1l4.6-14.6c10-5.1,25.1-16.1,34.9-38.5,5.5-12.6,6-23,1.4-31-5.9-10.2-17.9-12.2-19.6-12.5a3.7,3.7,0,0,0-2.8-1.3h-8.2a3.5,3.5,0,0,0-3.5,3.4v5.1a3.5,3.5,0,0,0,3.5,3.5h8.2a3.6,3.6,0,0,0,2.6-1.1c2.5.5,8.6,2.4,11.6,7.6s2.4,12.8-1.9,22.5c-12,27.6-32.7,35.3-37.6,36.8-4.9-1.5-25.5-9.2-37.6-36.8-4.2-9.6-4.9-17.2-1.9-22.4s6.6-6.2,9.5-7.1a3.7,3.7,0,0,0,1.8.5H107a3.5,3.5,0,0,0,3.5-3.5V69.3a3.5,3.5,0,0,0-3.5-3.4H99.8a3.6,3.6,0,0,0-3.2,2c-4.4,1.3-11.9,4.3-16.2,11.8s-4.1,18.4,1.4,31c9.7,22.3,24.7,33.3,34.7,38.4l4.7,14.7h2.1v34a4.7,4.7,0,0,0,4.7,4.7h17.2l14.3,24.9a4.8,4.8,0,0,0,5.2,2.2,4.6,4.6,0,0,0,3.6-4.3l3.1-69.9v-.2a5.5,5.5,0,1,1,11,0v.2l3.5,96.3a15,15,0,0,0,29.9,0l3.4-72.3v-2a5.6,5.6,0,0,1,5.6-5.5,5.8,5.8,0,0,1,5.5,5.5v.3l.5,10a15,15,0,0,0,15,14.8h14a31.9,31.9,0,1,0,0-9.4Zm31.6-17.8a22.5,22.5,0,1,1-22.5,22.5A22.5,22.5,0,0,1,291.4,175.3Z"></path><path class="cls-1" d="M291.4,213.3a15.5,15.5,0,1,0-15.5-15.5A15.5,15.5,0,0,0,291.4,213.3Zm0-23.4a7.9,7.9,0,0,1,7.9,7.9,7.9,7.9,0,0,1-7.9,8,8,8,0,0,1-8-8A7.9,7.9,0,0,1,291.4,189.9Z"></path><path class="cls-1" d="M464.4,137a19.8,19.8,0,0,0-11.5-18.3l-1.4-.6,1.3-.8a19,19,0,0,0,9.5-16.2c0-11.1-9.8-19.2-23.2-19.2H404.5v76.6h35.3C453.8,158.5,464.4,149.3,464.4,137ZM423.7,97.1h11.6c4.9,0,8.1,3,8.1,7.6a7.6,7.6,0,0,1-2.2,5.5,8.6,8.6,0,0,1-5.9,2.1H423.7Zm0,45.3V126.6h12.5c5,0,8.4,3.2,8.4,7.9s-3.4,7.9-8.4,7.9Z"></path><path class="cls-1" d="M504.7,97.8c-18.5,0-32,13.1-32,31.3s13.8,31.4,32,31.4c14.5,0,26.1-8,30.5-20.8H516.1c-2.3,3.5-6.5,5.6-11.4,5.6-7,0-11.7-3.9-13.1-11.1v-.9h45a40.9,40.9,0,0,0,.3-4.7v-.2C536.8,110.6,523.3,97.8,504.7,97.8Zm-13,25.5.3-1c1.8-6.3,6.3-9.8,12.7-9.8s11.3,3.5,13.2,9.8l.3,1Z"></path><path class="cls-1" d="M567.1,127.1c0-8.2,4.1-13,11-13s8.6,3.8,8.6,11.3v33.1h19.2v-36c0-14.9-8.8-24.5-22.4-24.5-7.4,0-13.9,2.7-18.4,7.7l-.8.9-3.2-6.9H547.8v58.8h19.3Z"></path><path class="cls-1" d="M678.9,139.7H659.7c-2.2,3.5-6.4,5.6-11.3,5.6-7,0-11.7-3.9-13.1-11.1l-.2-.9h45.1a40.9,40.9,0,0,0,.3-4.7v-.2c-.1-17.8-13.6-30.6-32.1-30.6s-32,13.1-32,31.3,13.7,31.4,32,31.4C662.9,160.5,674.5,152.5,678.9,139.7Zm-43.2-17.4c1.8-6.3,6.3-9.8,12.7-9.8s11.2,3.5,13.2,9.8l.3,1H635.4Z"></path><path class="cls-1" d="M696.5,115.5v43h19.3v-43h13.5V100.7H715.1V95.9c0-3.6,2.2-5.7,5.7-5.7h8.4V75.8H715.4c-12,0-18.6,6.5-18.6,18.4v6.5H686.5v14.8Z"></path><rect class="cls-1" x="738.8" y="99.7" width="19.2" height="58.78"></rect><rect class="cls-1" x="738.9" y="74.6" width="18.9" height="16.08"></rect><path class="cls-1" d="M801.7,143.4c-7.7,0-13.3-6-13.3-14.3s5.6-14.2,13.3-14.2A13.1,13.1,0,0,1,814,123h18.8c-2.6-15.1-14.9-25.1-31.1-25.1-19.2,0-32.6,12.8-32.6,31.1s13.7,31.5,32.6,31.5h0c16.2,0,28.7-10.4,31.3-25.9H814A12.7,12.7,0,0,1,801.7,143.4Z"></path><rect class="cls-1" x="843.7" y="99.7" width="19.2" height="58.78"></rect><rect class="cls-1" x="843.8" y="74.6" width="18.9" height="16.08"></rect><path class="cls-1" d="M907,97.8c-19.1,0-33,13.2-33,31.3s13.9,31.4,33,31.4,33.1-13.2,33.1-31.4S926.2,97.8,907,97.8Zm0,45.6c-8.1,0-13.7-5.9-13.7-14.3s5.6-14.2,13.7-14.2,13.8,6,13.8,14.2S915.2,143.4,907,143.4Z"></path><path class="cls-1" d="M978.6,122.3h-.5c-6-1.1-11-2-11-6s2.5-5.2,6.3-5.2,6.8,2.1,7.1,5.6h17.9c-.6-11.5-10.2-18.8-24.7-18.8s-25,7.5-25,19.1c0,13.6,10.9,16.5,21.1,18.2,5.2.8,11,1.8,11,6.2s-3.5,5.4-6.7,5.4-7.4-2.4-7.7-6.4H947.9c.6,12.5,10.4,20.2,25.8,20.2s25.9-7.9,25.9-20.1C999.6,126,987.9,124,978.6,122.3Z"></path><path class="cls-1" d="M457.1,236.1l.3-.5a40.7,40.7,0,0,0,7.3-21.5H449.3a25.6,25.6,0,0,1-2.4,8.7l-.5,1.1-.8-.9c-3.9-4.5-6.9-8-9.4-11.1l-.6-.7.8-.4c7.8-4.8,16-10.7,16-21.2,0-13.1-11.4-18.9-22.7-18.9-13.9,0-22.9,7.4-22.9,18.9,0,4.4,1.2,8.8,7.2,17.4l.5.7-.7.4c-9.1,6.1-13.2,12.7-13.2,21.3,0,13.4,9.9,22.4,24.6,22.4a40.1,40.1,0,0,0,21.1-5.8l.5-.3.5.5,3.5,3.9h18.5l-11.6-13.2Zm-27.4-52.4a6.3,6.3,0,0,1,6.6,6.5c0,4.2-4,7.1-8.3,9.7l-.7.4-.4-.6c-2.6-4.1-3.9-7.2-3.9-9.5C423,186.3,425.7,183.7,429.7,183.7Zm5.9,51.1a19.2,19.2,0,0,1-8.7,2.1c-5.5,0-9.1-3.3-9.1-8.1s1.6-6.2,5-9.2l.5-.5.6.6c3.3,4,7.2,8.5,12,13.9l.6.7Z"></path><path class="cls-1" d="M509.8,202.9c-7.8-2-13.9-3.5-13.9-8.5s4.2-6.1,8.3-6.1,8.5,2.8,8.9,7.2h20.1c-.4-15.2-10.8-23.9-28.8-23.9s-28.9,8.7-28.9,23.4c0,17.1,13.8,20.5,24.9,23.3h.4c7.5,1.8,13.9,3.4,13.9,8.8s-4.8,7.5-9.6,7.5-9.5-2.6-9.9-8.3H474.5c.3,15.8,12,25.6,30.7,25.6s30.5-9.4,30.5-25.2S521.3,205.9,509.8,202.9Z"></path><path class="cls-1" d="M593.6,196.3l-.8-.6a27.9,27.9,0,0,0-17.9-6.3c-18.2,0-30.9,12.8-30.9,31.2S557,252,574.9,252a27.8,27.8,0,0,0,17.7-6.1l.8-.7,2,4.8h14.8V191.2H596Zm-15.9,38.9a14.1,14.1,0,0,1-14.3-14.5c0-8.3,6.1-14.5,14.3-14.5a14.5,14.5,0,0,1,0,29Z"></path><rect class="cls-1" x="624.8" y="169.5" width="19.2" height="80.56"></rect><path class="cls-1" d="M696.5,224c0,6.7-3.7,10.9-9.6,10.9s-9.8-4.2-9.8-10.9V191.3H657.9v33.6c0,16.5,11.4,27.1,29,27.1s28.9-10.6,28.9-27.1V191.3H696.5Z"></path><path class="cls-1" d="M772.8,194.1l-1.2-.7a27.2,27.2,0,0,0-14.6-4.1c-18.2,0-30.9,12.9-30.9,31.4s13,31.4,30.9,31.4a27.2,27.2,0,0,0,17.7-6.3l.8-.7,2.2,5h14.1V169.5h-19Zm-13,41.2c-8.2,0-14.3-6.3-14.3-14.6s6.1-14.6,14.3-14.6,14.3,6.3,14.3,14.6S767.9,235.3,759.8,235.3Z"></path></svg>